<svg fill="none" height="160" viewBox="0 0 160 160" width="160" xmlns="http://www.w3.org/2000/svg" xmlns:xlink="http://www.w3.org/1999/xlink"><clipPath id="a"><path d="m0 0h160v160h-160z"/></clipPath><g clip-path="url(#a)"><path d="m134.601 154.056c-4.66 1.713-9.649 2.661-14.593 3.349-26.6799 3.465-53.6031 3.461-80.2831-.041-9.7909-1.338-20.2523-4.024-27.1004-11.511-6.35121-6.824-8.72076-16.504-9.97154-25.59-3.408402-27.1679-4.91282-71.3363 4.15887-96.9576 5.56597-14.07543 19.65127-19.1587 33.66357-20.75699 28.4554-3.523188 57.3625-3.61353 85.6826 1.09101 7.824 1.53227 15.746 4.55165 21.176 10.45838 16.858 16.3373 13.366 87.1172 9.35 110.4352-2.154 13.432-8.578 24.937-22.056 29.513z" fill="#d9c9e5"/><path d="m44 32h62c5.523 0 10 3.9399 10 8.8v78.4c0 4.86-4.477 8.8-10 8.8h-62z" fill="#69408c"/><path d="m44 32h62c5.523 0 10 3.9056 10 8.7234v72.5536c0 4.817-4.477 8.723-10 8.723h-62z" fill="#fff"/><path d="m72 34c0-3.3137 2.6863-6 6-6h20c3.314 0 6 2.6863 6 6v29.1459c0 2.2301-2.347 3.6806-4.3416 2.6833l-8.9751-4.4876c-1.6892-.8445-3.6774-.8445-5.3666 0l-8.9751 4.4876c-1.9947.9973-4.3416-.4532-4.3416-2.6833z" fill="#ffcc52"/></g></svg>