<svg width="16" height="17" viewBox="0 0 16 17" fill="none" xmlns="http://www.w3.org/2000/svg">
<path fill-rule="evenodd" clip-rule="evenodd" d="M14.2761 11.6526C14.4207 10.9163 14.5 9.90725 14.5 8.49996C14.5 7.21007 14.4333 6.25474 14.3109 5.53739C13.9776 5.93976 13.5695 6.40124 13.1056 6.86416C12.5298 7.43876 11.8555 8.02843 11.1196 8.51034C12.0877 9.41471 13.0186 10.3499 13.7459 11.1006C13.9375 11.2984 14.1152 11.4837 14.2761 11.6526ZM13.6535 13.1775C13.4051 12.9125 13.0673 12.556 12.6685 12.1443C11.8517 11.3011 10.7843 10.2324 9.70665 9.24683C9.16326 9.45459 8.5895 9.58329 7.99967 9.58329C7.41001 9.58329 6.83641 9.45466 6.29317 9.24699C5.21559 10.2325 4.14829 11.3012 3.33145 12.1443C2.93267 12.556 2.59491 12.9125 2.34647 13.1775C2.40008 13.2416 2.45583 13.2996 2.51359 13.3526C2.82306 13.6362 3.32225 13.8962 4.22844 14.0753C5.14443 14.2564 6.3603 14.3333 8 14.3333C9.6397 14.3333 10.8556 14.2564 11.7716 14.0753C12.6778 13.8962 13.1769 13.6362 13.4864 13.3526C13.5442 13.2996 13.5999 13.2416 13.6535 13.1775ZM1.72386 11.6526C1.57934 10.9163 1.5 9.90725 1.5 8.49996C1.5 7.21017 1.56664 6.25488 1.68903 5.53755C2.02231 5.93988 2.43031 6.40128 2.89404 6.86413C3.46982 7.43881 4.14424 8.02859 4.88017 8.51054C3.91216 9.41485 2.98137 10.3499 2.2541 11.1006C2.06253 11.2984 1.88478 11.4837 1.72386 11.6526ZM13.4864 3.64736C13.5627 3.71727 13.6354 3.796 13.7044 3.88603C13.6436 3.96695 13.5752 4.0564 13.4999 4.15286C13.1467 4.605 12.6445 5.20515 12.046 5.80243C11.4451 6.4021 10.7634 6.98247 10.0532 7.40912C9.33859 7.83835 8.64294 8.08329 7.99967 8.08329C7.35642 8.08329 6.66081 7.83836 5.9463 7.40913C5.2361 6.98249 4.5545 6.40213 3.95369 5.80246C3.35529 5.20519 2.85316 4.60504 2.50005 4.15291C2.42472 4.05644 2.35638 3.967 2.29556 3.88607C2.36454 3.79603 2.43731 3.71728 2.51359 3.64736C2.82306 3.36367 3.32225 3.10376 4.22844 2.9246C5.14443 2.7435 6.3603 2.66663 8 2.66663C9.6397 2.66663 10.8556 2.7435 11.7716 2.9246C12.6778 3.10376 13.1769 3.36367 13.4864 3.64736ZM8 15.8333C14.6667 15.8333 16 14.6111 16 8.49996C16 2.38885 14.6667 1.16663 8 1.16663C1.33333 1.16663 0 2.38885 0 8.49996C0 14.6111 1.33333 15.8333 8 15.8333Z" fill="#34395A"/>
</svg>
