<svg fill="none" height="80" viewBox="0 0 80 80" width="80" xmlns="http://www.w3.org/2000/svg"><path d="m67.3013 77.028c-2.3296.8565-4.8242 1.3307-7.2963 1.6747-13.34 1.7321-26.8016 1.7304-40.1416-.0208-4.8954-.6689-10.12614-2.0118-13.55017-5.7556-3.17561-3.412-4.36038-8.252-4.98578-12.795-1.704194-13.5838-2.4564-35.668 2.07944-48.4786 2.783-7.03772 9.82561-9.57935 16.83181-10.37849 14.2277-1.761599 28.6812-1.806768 42.8412.5455 3.9122.76614 7.873 2.27583 10.5883 5.22919 8.4289 8.1687 6.683 43.5587 4.6748 55.2175-1.0771 6.7163-4.2892 12.4684-11.0278 14.7564z" fill="#ffde8c"/><path d="m62 26.4617v-6.4617c0-1.1046-.8954-2-2-2h-6.6651c-.5343 0-1.0463.2138-1.422.5936l-21.3349 21.572c-.3703.3744-.578.8798-.578 1.4064v6.428c0 1.1046.8954 2 2 2h6.6523c.5418 0 1.0604-.2198 1.4372-.6092l6.3477-6.5592c.361-.3731.5628-.8718.5628-1.3909v-3.4407c0-.5523.4477-1 1-1h4c.5523 0 1-.4477 1-1v-4c0-.5523.4477-1 1-1h3.6309c.5544 0 1.0839-.2301 1.4621-.6354l2.3691-2.5383c.3457-.3703.5379-.858.5379-1.3646z" fill="#ffbf26"/><path d="m61.6062 18.8081-30.7981 30.7981c-.4904-.3645-.8081-.9483-.8081-1.6062v-.4142l29.5858-29.5858h.4142c.6579 0 1.2417.3177 1.6062.8081z" fill="#df6e00"/><circle cx="31" cy="49" fill="#ffbf26" r="13"/><circle cx="28" cy="52" fill="#fff" r="3"/></svg>