<svg fill="none" height="160" viewBox="0 0 160 160" width="160" xmlns="http://www.w3.org/2000/svg"><path d="m134.601 154.056c-4.66 1.713-9.649 2.661-14.593 3.349-26.6799 3.465-53.6031 3.461-80.2831-.041-9.7909-1.338-20.2523-4.024-27.1004-11.511-6.35121-6.824-8.72076-16.504-9.97154-25.59-3.408402-27.1679-4.91282-71.3363 4.15886-96.9576 5.56598-14.07543 19.65128-19.1587 33.66358-20.75699 28.4554-3.523188 57.3625-3.61353 85.6826 1.09101 7.824 1.53227 15.746 4.55166 21.176 10.45838 16.858 16.3373 13.366 87.1172 9.35 110.4352-2.154 13.432-8.578 24.937-22.056 29.513z" fill="#f5b3af"/><path d="m116 76c0 19.8823-16.1177 36-36 36s-36-16.1177-36-36 16.1177-36 36-36 36 16.1177 36 36z" fill="#ffcc52"/><path d="m76.3568 90.5219.0029.0014c2.002.9861 4.18 1.4767 6.5259 1.4767 2.3709 0 4.5482-.4747 6.5229-1.4321l.0071-.0035.007-.0037c.3958-.2065.722-.4803.9476-.8334.2271-.3554.3324-.7601.3324-1.1943 0-.6115-.2358-1.1479-.6746-1.5866-.4457-.4457-.999-.6745-1.6296-.6745-.2806 0-.6346.1064-1.0081.2499-1.2461.4599-2.7438.6976-4.5047.6976-2.1253 0-4.0225-.624-5.7088-1.8752-1.4895-1.1051-2.6205-2.5153-3.3946-4.2406h9.6633c.5773 0 1.091-.1839 1.4913-.5793.431-.3965.6406-.9157.6406-1.5095 0-.5793-.2188-1.0878-.6314-1.5005-.4127-.4126-.9212-.6314-1.5005-.6314h-10.6598c-.0289-.3813-.0428-.6743-.0428-.8829 0-.433.0211-.842.0626-1.2275h12.7934c.5765 0 1.0774-.2174 1.4663-.6404.399-.4028.6226-.8913.6226-1.4484 0-.5722-.2143-1.07-.6312-1.4577-.3877-.4168-.8854-.6311-1.4577-.6311h-11.6219c.7862-1.639 1.8813-2.9773 3.2852-4.0248 1.6254-1.1913 3.4932-1.7895 5.6234-1.7895 1.7578 0 3.2532.2368 4.498.6952.3598.1491.7084.2523 1.0148.2523.6306 0 1.1839-.2288 1.6296-.6745.4388-.4387.6746-.9751.6746-1.5866 0-.4438-.1031-.8569-.3324-1.2158-.2286-.3578-.5605-.627-.9631-.8197-1.9743-.957-4.1512-1.4315-6.5215-1.4315-3.6974 0-6.8003 1.053-9.2672 3.1889-2.3057 1.9926-3.956 4.4649-4.9486 7.406h-2.581c-.5792 0-1.0878.2188-1.5004.6314-.3947.3947-.5884.8936-.5884 1.4574 0 .5633.1926 1.066.5707 1.4819l.0172.019.019.0172c.4159.3782.9187.5707 1.4819.5707h1.7071c-.0323.5235-.0489.9341-.0489 1.2275 0 .334.0039.6288.0122.8829h-1.6704c-.5792 0-1.0878.2188-1.5004.6314l-.0091.0091-.0086.0095c-.3781.4159-.5707.9186-.5707 1.4819s.1926 1.066.5707 1.4819l.0172.019.019.0172c.4159.3781.9187.5707 1.4819.5707h2.399c.6267 2.0055 1.5822 3.8065 2.8671 5.3987 1.3696 1.6971 3.0384 3.0379 5.0019 4.0196z" fill="#df6e00"/><path d="m56.0934 97.4173c-9.117-.2834-18.2686 11.8337-21.7047 17.9277 3.8785 5.546 12.635 16.109 17.2181 12.074 5.7288-5.043 16.3233 1.341 27.8274-.363 11.5042-1.704 16.7549-6.894 31.9988-17.388 10.604-7.301 2.266-10.8105-2.584-8.636l-10.911 5.793c-.6339.336-1.3101.586-2.0105.742l-16.4202 3.661c-1.1374.254-1.8118-1.485-.8155-2.089 4.2586-2.583 9.0881-5.725 11.1895-7.644 2.6447-1.8041.6533-7.2517-3.4622-5.7673-16.4619 5.9373-18.9294 2.044-30.3257 1.6896z" fill="#580003"/><path d="m35.3698 104.387c2.0022-.933 4.3821-.067 5.3157 1.935l10.1429 21.752c.9336 2.002.0674 4.382-1.9348 5.315l-10.8757 5.072-13.5238-29.002z" fill="#e6e1d8"/><path d="m17.3606 149.955c-1.7109-1.178-3.3028-2.535-4.7363-4.103-6.35122-6.824-8.72076-16.504-9.97155-25.59-.1748-1.393-.3446-2.831-.50822-4.309l20.26357-7.626c.9878-.372 2.0944.088 2.5279 1.05l12.9194 28.675c.4473.993.0182 2.161-.9655 2.628z" fill="#eb6366"/></svg>